<svg xmlns="http://www.w3.org/2000/svg" viewBox="0 0 512 512" width="512" height="512">
  <defs>
    <linearGradient id="appGradient" x1="0%" y1="0%" x2="100%" y2="100%">
      <stop offset="0%" style="stop-color:#667eea;stop-opacity:1" />
      <stop offset="100%" style="stop-color:#764ba2;stop-opacity:1" />
    </linearGradient>
    <filter id="glow" x="-20%" y="-20%" width="140%" height="140%">
      <feGaussianBlur stdDeviation="2" result="blur"/>
      <feComposite in="SourceGraphic" in2="blur" operator="over"/>
    </filter>
  </defs>

  <!-- Background -->
  <rect width="512" height="512" fill="url(#appGradient)"/>

  <!-- Content Group -->
  <g transform="translate(256, 256)">

      <!-- D20 (Upper half, overlapping) -->
      <!-- Moved down to overlap book. Previously translate(0, -100). Now translate(0, -60) -->
      <g transform="translate(0, -60) scale(1) translate(-180, -150)">
          <path d="M106.75 215.06L1.2 370.95c-3.08 5 .1 11.5 5.93 12.14l208.26 22.07-108.64-190.1zM7.41 315.43L82.7 193.08 6.06 147.1c-2.67-1.6-6.06.32-6.06 3.43v162.81c0 4.03 5.29 5.53 7.41 2.09zM18.25 423.6l194.4 87.66c5.3 2.45 11.35-1.43 11.35-7.26v-65.67l-203.55-22.3c-4.45-.5-6.23 5.59-2.2 7.57zm81.22-257.78L179.4 22.88c4.34-7.06-3.59-15.25-10.78-11.14L17.81 110.35c-2.47 1.62-2.39 5.26.13 6.78l81.53 48.69zM240 176h109.21L253.63 7.62C250.5 2.54 245.25 0 240 0s-10.5 2.54-13.63 7.62L130.79 176H240zm233.94-28.9l-76.64 45.99 75.29 122.35c2.11 3.44 7.41 1.94 7.41-2.1V150.53c0-3.11-3.39-5.03-6.06-3.43zm-93.41 18.72l81.53-48.7c2.53-1.52 2.6-5.16.13-6.78l-150.81-98.6c-7.19-4.11-15.12 4.08-10.78 11.14l79.93 142.94zm79.02 250.21L256 438.32v65.67c0 5.84 6.05 9.71 11.35 7.26l194.4-87.66c4.03-1.97 2.25-8.06-2.2-7.56zm-86.3-200.97l-108.63 190.1 208.26-22.07c5.83-.65 9.01-7.14 5.93-12.14L373.25 215.06zM240 208H139.57L240 383.75 340.43 208H240z" fill="white"/>
      </g>
    
    <!-- Book (Lower half) -->
    <!-- Original viewBox 0 0 297 297. Centering by translating -148.5 -148.5. Scaling to fit. -->
    <g transform="translate(0, 60) scale(0.8) translate(-148.5, -148.5)">
        <path d="M287.034,60.873l-20.819-0.001V39.321c0-4.934-3.61-9.126-8.49-9.856c-0.852-0.128-21.134-3.074-45.557,1.37
			c-27.227,4.954-48.941,17.171-63.668,35.64c-14.728-18.469-36.442-30.686-63.668-35.64c-24.424-4.443-44.706-1.498-45.557-1.37
			c-4.88,0.731-8.49,4.923-8.49,9.856v21.551H9.966C4.463,60.872,0,65.335,0,70.839v187.805c0,3.227,1.562,6.254,4.193,8.124
			s6.004,2.35,9.051,1.288c0.748-0.259,75.431-25.747,131.12-0.345c2.628,1.199,5.645,1.199,8.273,0
			c55.533-25.33,130.376,0.088,131.12,0.345c1.068,0.372,2.174,0.555,3.276,0.555c2.043,0,4.065-0.628,5.775-1.842
			c2.631-1.87,4.193-4.897,4.193-8.124V70.84C297,65.336,292.538,60.873,287.034,60.873z M19.933,245.309V80.805h10.852v132.726
			c0,2.896,1.267,5.646,3.458,7.539c2.191,1.893,5.105,2.742,7.969,2.319c0.55-0.08,43.846-6.024,75.478,15.679
			C78.725,232.405,39.727,240.112,19.933,245.309z M138.534,230.08c-13.932-12.588-32.079-21.1-53.702-25.034
			c-10.406-1.894-20.06-2.446-27.78-2.446c-2.292,0-4.414,0.049-6.333,0.126V48.473h-0.001c19.155-0.864,65.752,1.184,87.816,38.587
			V230.08z M158.466,87.061c21.985-37.243,68.655-39.384,87.816-38.563v154.228c-8.383-0.338-20.62-0.136-34.114,2.32
			c-21.623,3.934-39.77,12.445-53.702,25.034V87.061z M179.277,239.074c31.636-21.716,74.955-15.766,75.495-15.686
			c2.871,0.431,5.783-0.413,7.981-2.305c2.198-1.894,3.462-4.65,3.462-7.552V80.806h10.852v164.503
			C257.267,240.11,218.253,232.4,179.277,239.074z" fill="black"/>
    </g>


  </g>
</svg>
